<?xml version="1.0" standalone="no"?>
<!DOCTYPE svg PUBLIC "-//W3C//DTD SVG 20010904//EN"
 "http://www.w3.org/TR/2001/REC-SVG-20010904/DTD/svg10.dtd">
<svg version="1.0" xmlns="http://www.w3.org/2000/svg"
 width="600.000000pt" height="600.000000pt" viewBox="0 0 600.000000 600.000000"
 preserveAspectRatio="xMidYMid meet">

<g transform="translate(0.000000,600.000000) scale(0.100000,-0.100000)"
fill="#000000" stroke="none">
<path d="M1060 5795 c-217 -27 -433 -79 -592 -143 -244 -98 -363 -219 -363
-367 1 -78 17 -121 71 -195 37 -50 71 -77 219 -175 243 -160 275 -191 275
-268 0 -55 -37 -97 -120 -140 -82 -41 -157 -59 -385 -91 -197 -28 -196 -24
-33 -192 68 -70 150 -147 183 -172 l60 -44 80 7 c202 17 463 76 634 143 93 37
104 39 153 30 29 -6 145 -8 258 -6 242 5 289 17 359 93 94 103 92 298 -6 375
-19 15 -24 25 -18 34 66 89 70 98 70 170 0 132 -69 201 -225 226 -36 5 -158
10 -272 10 -203 0 -207 0 -210 -21 -3 -20 -11 -16 -85 39 -128 95 -159 159
-108 220 58 69 191 105 395 106 105 1 145 4 145 13 0 6 -34 51 -76 100 -42 48
-106 127 -143 176 l-67 87 -47 -1 c-26 -1 -94 -7 -152 -14z m124 -180 c6 -18
10 -16 -102 -46 -289 -76 -368 -343 -159 -536 23 -22 119 -93 212 -160 204
-145 255 -195 255 -251 0 -75 -78 -157 -218 -230 -177 -93 -360 -148 -598
-183 l-144 -21 -40 32 c-22 17 -40 35 -40 38 0 4 46 17 103 29 108 24 218 72
278 122 109 91 145 241 89 368 -32 73 -107 140 -285 258 -93 61 -187 130 -207
153 -91 100 -49 177 147 272 174 84 409 141 691 169 7 0 15 -6 18 -14z m570
-615 c66 -33 89 -66 94 -137 4 -55 2 -61 -37 -113 -52 -69 -53 -100 -7 -135
85 -65 88 -236 5 -312 -55 -51 -89 -57 -319 -61 -118 -2 -212 -1 -209 2 3 3
33 24 68 46 58 38 65 40 99 30 48 -13 137 -13 186 1 105 29 141 168 65 254
-20 23 -44 37 -78 45 -43 10 -49 15 -53 41 -4 25 -1 30 21 35 86 19 122 53
128 121 3 36 -1 56 -16 80 -33 52 -73 67 -179 68 -89 0 -95 -1 -116 -26 l-22
-26 -62 45 c-102 73 -97 75 161 70 213 -3 224 -4 271 -28z m-139 -104 c37 -16
52 -48 41 -92 -7 -26 -56 -54 -94 -54 -24 0 -123 125 -116 145 8 20 122 20
169 1z m43 -362 c15 -18 22 -37 22 -67 -1 -48 -15 -72 -54 -87 -28 -10 -156
-14 -156 -5 0 3 15 27 33 54 30 43 44 71 61 124 8 26 63 14 94 -19z"/>
<path d="M4605 5098 c-122 -14 -128 -16 -119 -36 5 -9 10 -205 12 -435 4 -485
-9 -439 130 -435 l87 3 5 190 5 189 34 23 c39 26 78 29 107 9 17 -13 19 -31
24 -213 l5 -198 56 -5 c31 -3 79 -3 108 -2 l51 4 0 250 c0 282 -4 300 -70 344
-72 48 -185 40 -264 -19 -63 -48 -59 -58 -54 152 5 190 5 191 -16 189 -12 0
-57 -5 -101 -10z m57 -216 c-3 -143 -2 -160 15 -181 28 -34 64 -29 129 15 51
35 63 39 120 39 56 0 66 -3 93 -29 l31 -30 0 -228 0 -229 -47 3 -48 3 -5 177
c-6 201 -13 221 -87 247 -53 19 -110 3 -161 -44 l-37 -33 -3 -171 -3 -171 -50
0 -49 0 0 338 c0 185 -3 360 -6 389 l-7 52 34 4 c19 2 45 5 59 5 l25 2 -3
-158z"/>
<path d="M3273 5064 c-46 -23 -69 -76 -54 -125 14 -45 44 -69 99 -76 61 -8
111 13 128 53 8 18 14 43 14 54 0 82 -104 134 -187 94z m109 -61 c21 -18 24
-53 6 -71 -30 -30 -118 -3 -118 36 0 45 75 69 112 35z"/>
<path d="M4038 4914 l-3 -129 -30 -5 -30 -5 0 -85 0 -85 30 -5 30 -5 5 -165
c3 -107 9 -173 18 -187 23 -41 69 -58 162 -58 72 0 94 4 143 27 55 26 57 28
57 65 0 21 3 55 7 77 l6 38 -69 -6 c-38 -4 -74 -3 -80 1 -24 17 -34 55 -34
132 l0 81 80 0 80 0 0 100 0 99 -77 3 -78 3 0 95 0 95 -80 17 c-44 10 -92 21
-107 24 l-27 6 -3 -128z m154 -30 c-7 -108 22 -144 113 -144 l45 0 0 -39 0
-39 -60 -4 c-82 -6 -92 -18 -98 -115 -8 -143 26 -207 117 -219 44 -6 51 -10
51 -29 0 -31 -40 -47 -130 -52 -66 -5 -78 -2 -102 17 l-28 21 0 163 c0 149 -2
164 -20 184 -12 12 -27 22 -35 22 -11 0 -15 11 -15 38 0 29 5 39 22 47 36 16
48 53 48 146 l0 86 48 -9 48 -10 -4 -64z"/>
<path d="M2950 4851 c-135 -42 -220 -153 -191 -251 6 -21 34 -65 61 -97 37
-43 50 -66 50 -90 0 -37 -14 -48 -89 -64 -28 -6 -51 -15 -51 -21 0 -17 57
-113 79 -132 24 -22 70 -16 146 18 100 45 145 103 145 186 0 55 -18 95 -73
159 -26 30 -47 65 -47 76 0 32 33 57 85 62 54 7 56 17 19 82 -48 83 -66 92
-134 72z m68 -76 c9 -20 9 -25 -3 -25 -26 0 -84 -60 -90 -94 -8 -42 12 -86 71
-155 45 -53 46 -56 42 -110 -4 -47 -10 -59 -39 -83 -30 -25 -124 -68 -149 -68
-5 0 -16 13 -24 29 -15 28 -15 29 15 35 17 3 44 19 60 35 41 42 41 103 -1 157
-16 21 -43 57 -60 78 -33 43 -37 73 -16 114 20 38 54 68 106 91 59 27 74 26
88 -4z"/>
<path d="M3760 4851 c-135 -42 -220 -153 -191 -251 6 -21 34 -65 61 -97 37
-43 50 -66 50 -90 0 -37 -14 -48 -89 -64 -28 -6 -51 -15 -51 -21 0 -17 57
-113 79 -132 24 -22 70 -16 146 18 100 45 145 103 145 186 0 55 -18 95 -73
159 -26 30 -47 65 -47 76 0 32 33 57 85 62 54 7 56 17 19 82 -48 83 -66 92
-134 72z m68 -76 c9 -20 9 -25 -3 -25 -26 0 -84 -60 -90 -94 -8 -42 12 -86 71
-155 45 -53 46 -56 42 -110 -4 -47 -10 -59 -39 -83 -30 -25 -124 -68 -149 -68
-5 0 -16 13 -24 29 -15 28 -15 29 15 35 17 3 44 19 60 35 41 42 41 103 -1 157
-16 21 -43 57 -60 78 -33 43 -37 73 -16 114 20 38 54 68 106 91 59 27 74 26
88 -4z"/>
<path d="M2178 4804 c-110 -38 -178 -139 -186 -275 -6 -97 9 -159 54 -227 58
-88 157 -135 248 -118 20 4 58 22 86 41 48 33 50 33 50 11 0 -49 17 -55 119
-48 l95 7 1 270 c1 149 5 280 9 291 7 19 2 23 -56 38 -35 10 -78 18 -97 19
-31 2 -36 -2 -44 -29 l-9 -32 -43 30 c-36 25 -55 31 -112 34 -46 3 -83 -1
-115 -12z m194 -71 c50 -47 108 -47 129 0 10 22 14 24 48 15 l36 -9 0 -244 0
-243 -45 -7 c-24 -4 -46 -3 -47 2 -29 81 -71 85 -163 17 -67 -49 -171 -20
-231 65 -37 51 -49 94 -49 171 0 167 91 266 237 257 47 -2 68 -8 85 -24z"/>
<path d="M2254 4670 c-42 -13 -101 -80 -110 -124 -12 -65 4 -123 44 -165 84
-88 223 -74 280 27 45 81 19 197 -54 243 -38 23 -116 32 -160 19z m141 -80
c75 -71 38 -193 -62 -207 -76 -10 -133 43 -133 125 0 43 28 87 64 103 35 15
105 4 131 -21z"/>
<path d="M5378 4804 c-110 -38 -178 -139 -186 -275 -6 -97 9 -159 54 -227 58
-88 157 -135 248 -118 20 4 58 22 86 41 48 33 50 33 50 11 0 -49 17 -55 119
-48 l95 7 1 270 c1 149 5 280 9 291 7 19 2 23 -56 38 -35 10 -78 18 -97 19
-31 2 -36 -2 -44 -29 l-9 -32 -43 30 c-36 25 -55 31 -112 34 -46 3 -83 -1
-115 -12z m194 -71 c50 -47 108 -47 129 0 10 22 14 24 48 15 l36 -9 0 -244 0
-243 -45 -7 c-24 -4 -46 -3 -47 2 -29 81 -71 85 -163 17 -67 -49 -171 -20
-231 65 -37 51 -49 94 -49 171 0 167 91 266 237 257 47 -2 68 -8 85 -24z"/>
<path d="M5454 4670 c-42 -13 -101 -80 -110 -124 -12 -65 4 -123 44 -165 84
-88 223 -74 280 27 45 81 19 197 -54 243 -38 23 -116 32 -160 19z m141 -80
c75 -71 38 -193 -62 -207 -76 -10 -133 43 -133 125 0 43 28 87 64 103 35 15
105 4 131 -21z"/>
<path d="M3215 4800 c-2 -3 1 -66 5 -140 5 -74 6 -206 3 -293 -5 -131 -4 -160
8 -168 19 -12 196 -11 204 1 3 6 8 133 10 283 3 149 6 283 7 296 l3 24 -118 1
c-66 1 -120 -1 -122 -4z m171 -306 l-1 -244 -52 0 -52 0 0 240 c0 133 -2 244
-5 248 -2 4 22 6 53 4 l57 -4 0 -244z"/>
<path d="M2490 4159 c-305 -43 -574 -123 -827 -247 -148 -72 -173 -91 -173
-129 0 -43 26 -60 152 -100 135 -42 170 -67 188 -134 9 -34 8 -51 -9 -102 -23
-67 -26 -145 -8 -193 7 -17 34 -69 60 -115 27 -46 70 -122 96 -169 l48 -85
-26 -6 c-36 -8 -103 -43 -139 -73 -65 -55 -91 -171 -56 -254 26 -63 63 -95
312 -269 42 -30 49 -41 82 -131 20 -55 55 -131 78 -170 l41 -71 -352 -3 -352
-3 -57 -27 c-72 -35 -152 -113 -178 -173 -17 -40 -20 -69 -20 -209 l0 -162
-62 -30 c-232 -110 -404 -296 -479 -520 -29 -85 -29 -86 -29 -344 0 -246 1
-260 19 -270 27 -14 4395 -14 4422 0 18 10 19 24 19 261 0 284 -6 321 -71 455
-85 173 -246 328 -437 418 l-62 30 0 163 c0 148 -2 168 -22 211 -30 64 -101
132 -173 168 l-60 29 -352 3 -352 3 41 71 c23 39 58 115 77 168 l36 98 130 92
c157 112 202 153 226 205 40 87 14 205 -60 266 -47 38 -110 69 -144 69 -15 0
-27 2 -27 4 0 2 16 43 36 92 140 341 156 390 161 494 6 120 -12 204 -70 314
-81 156 -234 285 -415 350 l-87 31 -530 1 c-291 1 -559 -2 -595 -7z m1195 -82
c347 -122 525 -460 407 -772 -43 -114 -84 -216 -126 -319 -20 -49 -36 -94 -36
-101 0 -28 37 -57 82 -66 128 -23 201 -142 154 -252 -18 -42 -35 -57 -206
-180 l-145 -104 -41 -109 c-22 -60 -59 -141 -82 -181 -23 -39 -42 -77 -42 -83
0 -6 11 -22 25 -35 l24 -25 339 0 c371 0 382 -1 467 -60 27 -18 57 -52 75 -83
30 -52 30 -52 30 -215 0 -94 4 -172 10 -183 6 -10 48 -38 93 -60 118 -60 183
-107 260 -189 74 -78 122 -147 156 -224 44 -102 51 -152 51 -390 l0 -226
-2170 0 -2170 0 0 234 c0 224 1 237 26 312 68 210 213 368 441 483 45 22 87
50 93 60 6 11 10 88 10 179 0 182 7 210 69 270 21 20 60 48 87 62 49 25 50 25
405 30 373 5 380 6 394 51 4 12 -9 45 -36 91 -24 40 -61 122 -84 183 -45 123
-18 94 -250 259 -133 94 -155 124 -155 209 0 64 35 115 100 149 30 15 67 30
82 33 15 3 35 17 45 31 16 26 16 28 -6 68 -178 316 -201 363 -201 411 0 23 9
68 21 101 24 70 20 119 -17 181 -34 59 -77 85 -204 124 -61 19 -109 38 -107
43 6 17 227 123 342 164 217 78 386 120 605 151 36 5 299 8 585 7 l520 -1 80
-28z"/>
<path d="M3509 3576 c-180 -137 -338 -195 -528 -196 -88 0 -167 -16 -247 -51
-76 -33 -554 -321 -564 -340 -16 -29 1 -121 26 -146 l23 -23 336 0 335 0 0
-40 c0 -30 7 -47 25 -65 21 -22 33 -25 95 -25 62 0 74 3 95 25 18 18 25 35 25
65 l0 40 335 0 336 0 25 25 26 26 -4 167 -3 167 -41 85 c-63 132 -202 320
-237 320 -8 0 -34 -15 -58 -34z m151 -156 c29 -41 69 -108 89 -150 36 -75 36
-75 39 -232 l4 -158 -338 0 c-333 0 -338 0 -361 -22 -17 -16 -23 -32 -23 -65
l0 -43 -60 0 -60 0 0 42 c0 29 -7 49 -22 65 l-21 23 -338 0 -337 0 -4 43 c-3
23 -4 42 -4 43 24 18 486 288 520 303 79 34 158 51 245 51 95 0 203 20 297 56
61 23 255 141 269 164 7 12 31 -16 105 -120z"/>
<path d="M1996 2790 c-88 -27 -141 -143 -101 -221 17 -32 167 -149 191 -149 8
0 26 12 41 26 20 20 24 32 19 57 -3 18 -9 81 -12 142 -6 95 -10 112 -30 132
-24 24 -57 28 -108 13z m77 -157 c4 -60 10 -119 13 -132 7 -24 6 -23 -41 10
-95 68 -108 85 -102 130 6 45 37 86 71 92 54 11 53 14 59 -100z"/>
<path d="M2195 2775 c-21 -21 -25 -33 -25 -88 0 -77 23 -214 52 -317 51 -175
166 -424 230 -491 l26 -29 527 0 c330 0 533 4 545 10 27 15 106 146 156 261
89 204 144 422 144 566 0 55 -4 68 -25 88 -21 22 -33 25 -98 25 -115 0 -119
-5 -120 -167 l-2 -132 -35 -36 c-43 -44 -81 -55 -200 -55 -119 0 -157 11 -200
55 -31 32 -34 40 -35 102 -2 90 -18 103 -125 103 -107 0 -123 -13 -125 -103
-1 -62 -4 -70 -35 -102 -43 -44 -81 -55 -200 -55 -119 0 -157 11 -200 55 l-35
36 -2 132 c-1 162 -5 167 -120 167 -65 0 -77 -3 -98 -25z m160 -148 c0 -136 4
-152 51 -200 60 -61 86 -71 207 -75 138 -5 185 2 238 38 66 44 93 90 93 161
l1 59 65 0 66 0 -4 -33 c-6 -53 14 -109 55 -150 65 -67 81 -72 243 -72 162 0
178 5 244 72 47 48 51 64 51 200 l0 113 63 0 62 0 0 -53 c0 -179 -103 -509
-217 -699 l-47 -78 -516 0 -516 0 -47 78 c-51 85 -131 275 -165 392 -28 98
-52 239 -52 306 l0 54 63 0 62 0 0 -113z"/>
<path d="M2475 2775 c-23 -23 -25 -31 -25 -130 0 -115 10 -148 56 -184 24 -19
40 -21 144 -21 104 0 120 2 144 21 46 36 56 69 56 184 0 99 -2 107 -25 130
-23 24 -28 25 -175 25 -147 0 -152 -1 -175 -25z m315 -133 c0 -140 -2 -142
-140 -142 -138 0 -140 2 -140 142 l0 98 140 0 140 0 0 -98z"/>
<path d="M3195 2775 c-23 -23 -25 -31 -25 -130 0 -115 10 -148 56 -184 24 -19
40 -21 144 -21 104 0 120 2 144 21 46 36 56 69 56 184 0 99 -2 107 -25 130
-23 24 -28 25 -175 25 -147 0 -152 -1 -175 -25z m315 -133 c0 -140 -2 -142
-140 -142 -138 0 -140 2 -140 142 l0 98 140 0 140 0 0 -98z"/>
<path d="M3916 2777 c-20 -20 -24 -37 -30 -132 -3 -61 -9 -124 -12 -142 -5
-25 -1 -37 19 -57 15 -14 33 -26 41 -26 24 0 174 117 191 149 52 101 -40 231
-163 231 -13 0 -33 -10 -46 -23z m132 -71 c14 -14 26 -40 29 -64 6 -46 -7 -63
-102 -131 -47 -33 -48 -34 -41 -10 3 13 9 73 13 132 l6 109 36 -7 c20 -3 46
-17 59 -29z"/>
<path d="M1629 1814 c-55 -17 -133 -82 -159 -135 -19 -37 -20 -63 -20 -714 l0
-676 25 -24 24 -25 1511 0 1511 0 24 25 25 24 0 676 c0 768 6 713 -86 794 -86
76 9 71 -1478 70 -1118 0 -1338 -3 -1377 -15z m2736 -55 c49 -14 101 -51 126
-93 18 -30 19 -59 19 -698 l0 -668 -1500 0 -1500 0 0 668 c0 639 1 668 19 698
25 40 76 79 121 92 51 15 2662 15 2715 1z"/>
<path d="M2370 1562 c-127 -113 -155 -143 -158 -167 -1 -17 1 -35 5 -40 5 -6
75 -70 157 -144 105 -95 152 -132 161 -125 69 51 104 81 104 89 0 6 -52 54
-115 109 -63 54 -114 101 -114 105 0 6 155 147 213 193 l22 18 -55 49 c-30 28
-57 50 -60 51 -3 0 -75 -62 -160 -138z m177 42 c2 -5 -38 -45 -88 -89 -50 -44
-95 -88 -101 -98 -18 -34 1 -64 94 -148 51 -45 94 -86 96 -89 1 -4 -3 -12 -10
-18 -10 -7 -44 18 -137 102 -69 62 -126 117 -128 123 -5 13 246 235 260 230 6
-2 12 -8 14 -13z"/>
<path d="M3430 1650 c-49 -44 -53 -51 -38 -62 40 -31 218 -193 218 -199 0 -7
-207 -192 -221 -197 -25 -9 -4 -33 96 -106 9 -7 56 30 161 125 82 74 152 138
157 144 4 5 6 23 5 40 -3 24 -31 54 -158 167 -85 76 -157 138 -160 138 -3 -1
-30 -23 -60 -50z m195 -142 c69 -61 124 -116 122 -121 -2 -6 -59 -61 -128
-123 -102 -93 -126 -110 -137 -99 -12 10 -5 21 40 61 116 107 148 141 148 164
0 23 -27 52 -138 152 -56 50 -71 78 -42 78 6 0 66 -50 135 -112z"/>
<path d="M2988 1483 c-184 -220 -258 -310 -258 -317 0 -8 119 -79 127 -75 4 2
100 114 213 249 112 135 208 247 212 248 19 9 4 30 -47 65 -31 20 -60 37 -65
37 -5 0 -87 -93 -182 -207z m200 88 c-175 -216 -343 -408 -354 -404 -24 9 -16
26 44 95 31 36 111 131 177 211 101 122 123 143 138 135 17 -8 16 -11 -5 -37z"/>
<path d="M2918 997 c-105 -40 -175 -110 -199 -201 -30 -109 33 -226 152 -287
50 -25 70 -29 139 -29 69 0 89 4 139 29 120 61 182 178 152 288 -32 117 -144
203 -275 210 -44 2 -85 -2 -108 -10z m218 -81 c111 -60 144 -188 73 -285 -88
-123 -310 -123 -398 0 -84 114 -23 261 127 310 49 16 146 4 198 -25z"/>
<path d="M2919 900 c-48 -26 -86 -72 -100 -122 -27 -104 75 -218 196 -218 48
0 132 45 155 82 48 80 46 145 -7 208 -57 68 -167 91 -244 50z m172 -63 c21
-14 39 -37 47 -61 28 -86 -53 -167 -153 -151 -49 7 -81 32 -100 79 -46 108
101 204 206 133z"/>
<path d="M1260 1186 c-197 -116 -339 -312 -375 -520 -9 -52 -15 -149 -15 -233
0 -139 1 -145 25 -168 l24 -25 221 0 221 0 24 25 25 24 0 446 0 446 -25 24
c-13 14 -30 25 -37 25 -7 0 -47 -20 -88 -44z m90 -451 l0 -435 -210 0 -210 0
0 134 c0 75 7 172 15 222 34 196 154 365 335 475 36 21 66 39 68 39 1 0 2
-196 2 -435z"/>
<path d="M4635 1205 l-25 -24 0 -446 0 -446 25 -24 24 -25 221 0 221 0 24 25
c24 23 25 29 25 168 0 84 -6 181 -15 233 -27 152 -114 307 -237 419 -62 56
-200 145 -226 145 -7 0 -24 -11 -37 -25z m201 -143 c124 -102 212 -251 239
-406 8 -49 15 -148 15 -222 l0 -134 -210 0 -210 0 0 436 0 435 51 -28 c28 -15
79 -52 115 -81z"/>
</g>
</svg>
